<?xml version="1.0" standalone="no"?>
<!DOCTYPE svg PUBLIC "-//W3C//DTD SVG 20010904//EN"
 "http://www.w3.org/TR/2001/REC-SVG-20010904/DTD/svg10.dtd">
<svg version="1.0" xmlns="http://www.w3.org/2000/svg"
 width="512.000000pt" height="512.000000pt" viewBox="0 0 512.000000 512.000000"
 preserveAspectRatio="xMidYMid meet">
<metadata>
Created by potrace 1.14, written by Peter Selinger 2001-2017
</metadata>
<g transform="translate(0.000000,512.000000) scale(0.100000,-0.100000)"
fill="#000000" stroke="none">
<path d="M2521 5109 c-156 -18 -430 -81 -516 -118 -11 -5 -66 -28 -123 -50
-340 -137 -653 -376 -868 -661 -150 -198 -256 -422 -327 -690 -37 -137 -51
-240 -51 -375 0 -114 16 -219 60 -390 39 -149 52 -344 30 -440 -19 -85 -80
-203 -209 -402 -116 -179 -139 -253 -95 -308 24 -31 86 -60 145 -68 57 -8 93
-26 130 -65 36 -37 41 -60 47 -212 6 -144 19 -160 131 -163 l36 -1 -50 -46
c-40 -37 -51 -54 -51 -77 0 -42 41 -80 105 -99 29 -8 61 -24 71 -35 19 -22 21
-46 14 -291 -2 -77 14 -126 52 -167 34 -37 108 -75 174 -89 76 -17 282 -3 479
33 54 10 329 84 389 105 33 11 60 20 62 20 8 0 77 -129 103 -193 30 -72 59
-175 67 -232 3 -16 7 -45 10 -63 l5 -32 1101 0 1101 0 -20 23 c-133 148 -377
784 -417 1084 -5 39 2 57 76 200 96 186 218 431 218 437 0 3 13 33 29 68 114
246 250 737 276 994 3 27 7 69 10 94 10 94 4 353 -10 457 -13 100 -16 120 -32
193 -68 327 -201 630 -382 865 -50 65 -52 68 -127 146 -92 97 -248 229 -270
229 -4 0 -17 8 -28 19 -72 64 -360 186 -561 238 -125 31 -103 27 -295 58 -61
10 -412 13 -489 4z"/>
</g>
</svg>
